<svg width="75" height="24" viewBox="0 0 75 24" fill="none" xmlns="http://www.w3.org/2000/svg">
<g clip-path="url(#clip0_374_28364)">
<path d="M33.8606 0.350708C37.441 0.350708 39.6264 2.47642 39.6264 5.60524C39.6264 8.73405 37.441 10.8833 33.8606 10.8833H28.7785V15.9977H25.6163V0.350708H33.8606ZM33.8606 8.01013C35.5582 8.01013 36.4878 7.05209 36.4878 5.60524C36.4878 4.15838 35.5582 3.22287 33.8606 3.22287H28.7785V8.01013H33.8606Z" fill="white"/>
<path d="M57.7832 8.19722C57.7832 12.7504 54.1802 16.3474 49.5762 16.3474C44.9721 16.3474 41.3691 12.7504 41.3691 8.19722C41.3691 3.64408 44.9731 0 49.5771 0C54.1812 0 57.7841 3.64408 57.7841 8.19722H57.7832ZM54.5995 8.19722C54.5995 5.20751 52.3915 2.98971 49.5781 2.98971C46.7647 2.98971 44.5567 5.20751 44.5567 8.19722C44.5567 11.1869 46.7647 13.3577 49.5781 13.3577C52.3915 13.3577 54.5995 11.185 54.5995 8.19722Z" fill="white"/>
<path d="M74.7761 15.9967H72.1253L63.501 5.95495V15.9967H60.3389V0.350708H62.9896L71.6149 10.6717V0.350708H74.7771V15.9967H74.7761Z" fill="white"/>
<path fill-rule="evenodd" clip-rule="evenodd" d="M10.3004 16.0095H7.96021V13.6585L13.4214 8.17279L7.96021 2.68806V0.33606H10.3004L15.7607 5.82177L21.2229 0.33606H23.5641V2.68708L18.1019 8.17181L23.5641 13.6575V16.0085H21.2229L15.7617 10.5228L10.3014 16.0085L10.3004 16.0095Z" fill="white"/>
<path d="M15.7606 12.6338L14.3099 14.0924V21.1171H2.8702V9.62745H9.87428L11.3211 8.17373L9.89779 6.74353H0V24H17.1801V14.0591L15.7606 12.6338Z" fill="#00D4FF"/>
</g>
<defs>
<clipPath id="clip0_374_28364">
<rect width="74.7761" height="24" fill="white"/>
</clipPath>
</defs>
</svg>
