<svg width="148" height="64" viewBox="0 0 148 64" fill="none" xmlns="http://www.w3.org/2000/svg">
<g clip-path="url(#clip0_68_26570)">
<path d="M68.9203 16.4675C73.6702 16.4675 76.5695 19.3018 76.5695 23.4736C76.5695 27.6453 73.6702 30.511 68.9203 30.511H62.1782V37.3302H57.9833V16.4675H68.9203ZM68.9203 26.6801C71.1724 26.6801 72.4057 25.4027 72.4057 23.4736C72.4057 21.5444 71.1724 20.2971 68.9203 20.2971H62.1782V26.6801H68.9203Z" fill="white"/>
<path d="M100.657 26.9296C100.657 33.0005 95.8769 37.7966 89.7691 37.7966C83.6612 37.7966 78.8814 33.0005 78.8814 26.9296C78.8814 20.8588 83.6625 16 89.7704 16C95.8782 16 100.658 20.8588 100.658 26.9296H100.657ZM96.4331 26.9296C96.4331 22.9433 93.504 19.9863 89.7716 19.9863C86.0393 19.9863 83.1102 22.9433 83.1102 26.9296C83.1102 30.9159 86.0393 33.8103 89.7716 33.8103C93.504 33.8103 96.4331 30.9133 96.4331 26.9296Z" fill="white"/>
<path d="M123.2 37.3289H119.683L108.242 23.9399V37.3289H104.047V16.4675H107.564L119.006 30.2288V16.4675H123.201V37.3289H123.2Z" fill="white"/>
<path fill-rule="evenodd" clip-rule="evenodd" d="M37.6648 37.346H34.5602V34.2113L41.8052 26.897L34.5602 19.584V16.448H37.6648L44.9085 23.7623L52.1548 16.448H55.2607V19.5827L48.0144 26.8957L55.2607 34.21V37.3446H52.1548L44.9098 30.0304L37.6661 37.3446L37.6648 37.346Z" fill="white"/>
<path d="M44.9085 32.8452L42.9839 34.79V44.1562H27.8077V28.8367H37.0995L39.0189 26.8984L37.1307 24.9915H24V48.0001H46.7915V34.7456L44.9085 32.8452Z" fill="#00D4FF"/>
</g>
<defs>
<clipPath id="clip0_68_26570">
<rect width="99.2" height="32" fill="white" transform="translate(24 16)"/>
</clipPath>
</defs>
</svg>
